<?xml version="1.0" encoding="utf-8"?>
<!-- Generator: Adobe Illustrator 19.0.1, SVG Export Plug-In . SVG Version: 6.00 Build 0)  -->
<svg version="1.1" id="Layer_1" xmlns="http://www.w3.org/2000/svg" xmlns:xlink="http://www.w3.org/1999/xlink" x="0px" y="0px"
	 viewBox="0 0 90.8 70.9" style="enable-background:new 0 0 90.8 70.9;" xml:space="preserve">
<style type="text/css">
	.st0{fill-rule:evenodd;clip-rule:evenodd;fill:#FFFFFF;}
</style>
<path class="st0" d="M80.6,7c-1.2,0.4-2.3,0.8-3.4,1.3c-2.9,1.4-6,2.6-8.7,4.3c-4.8,2.8-9.5,5.7-14,8.9c-3.2,2.3-6.1,5.1-9.4,7.8
	c-1-1.5-1.6-3-2.7-4.1c-4.7-5.1-9.5-10-15.5-13.4C23.5,9.9,20.2,8,16.7,6.4c-2.3-1-4.9-1.6-7.4-2C8.4,4.3,6.5,5,6.3,5.7
	C5,11.3,5.6,16.8,8.2,21.9c1.3,2.5,3,4.8,4.6,7.2c2.5,3.6,5,7.2,7.7,10.5c3.8,4.7,7.8,9.3,11.8,13.9c0.6,0.7,1.2,1.3,1.8,2
	c0,0,0.1,0.1,0.1,0.1c0.1,0.1,0.3,0.2,0.4,0.3c0.1,0.1,0.1,0.1,0.2,0.2c0,0,0.1,0.1,0.1,0.1c0.1,0.1,0.2,0.2,0.3,0.3
	c0.6,0.4,1,0.8,1.4,1.3c1.5,1.2,3.1,2.4,4.3,3.8c0.3,0.1,0.5,0.3,0.7,0.5c0,0,0.1,0,0.1,0c0.3,0.2,0.5,0.4,0.7,0.6
	c1.8,1.1,3.4,2.6,5.2,3.7c0.1,0,0.1,0,0.2,0.1c0.2,0,0.5-0.1,0.7-0.1c0,0,0,0,0.1,0c0.1,0,0.2-0.1,0.3-0.1c0.4-0.2,0.9-0.4,1.4-0.5
	c0.1-0.1,0.2-0.1,0.3-0.2c0.1-0.2,0.3-0.3,0.4-0.5c2.6-3.6,5.2-7.3,7.7-11c0.5-0.8,1.1-1.5,1.5-2.3c0.1-0.1,0.2-0.2,0.2-0.4
	c0.1,0,0.1-0.1,0.1-0.2c0.5-0.9,1-1.7,1.4-2.6c1.7-3,3.8-5.8,5.8-8.7c0.1-0.1,0.1-0.1,0.2-0.2c0.4-0.5,0.8-1.1,1.1-1.6c0,0,0,0,0,0
	c0,0,0.1,0,0.1-0.1c0-0.1,0.1-0.1,0.1-0.2c0.2-0.3,0.4-0.5,0.6-0.8c0.1-0.1,0.2-0.2,0.3-0.4c0.3-0.3,0.5-0.5,0.7-0.8
	c1.3-1.9,2.5-4,3.7-6c1.1-1.8,2.4-3.5,3.5-5.3c1.6-2.7,2.9-5.5,4.5-8.2c1.1-1.8,2.5-3.2,2.5-5.6C85.2,8.1,83.2,6.2,80.6,7z
	 M46.4,58.9c-3.3-3.4-6.7-6.9-10-10.4c-2.9-3.1-5.7-6.2-8.4-9.5c-2.3-2.8-4.4-5.8-6.6-8.7c-1.2-1.5-2.4-3-3.7-4.4
	c-2.8-3.4-4.9-7.1-5.9-11.4c-0.2-1-0.2-2.1-0.3-3.5c-0.1-0.2,0-0.4,0.3-0.4c0,0,0.1,0,0.1,0l0,0c1.9,0.6,3.7,1.1,5.4,1.8
	C21,14,25,15.3,28.1,18.2c0.6,0.6,1.3,1.2,1.9,1.7c1.2,1.1,2.4,2.1,3.6,3.2c1.4,1.3,2.7,2.8,4,4.2c0.1,0,0.1,0.1,0.1,0.1
	c0,0,0.1,0.1,0.1,0.1c0.1,0.1,0.2,0.2,0.3,0.3c0,0,0,0,0.1,0c0.9,0.8,1.5,1.8,2.1,2.8c0.5,0.7,1,1.4,1.4,2.2
	c0.7,1.2,1.5,2.4,2.3,3.5c0.2,0.1,0.4,0.2,0.6,0.3c0.4,0.1,0.8,0.2,1.2,0.2c0.3-0.1,0.5-0.1,0.8-0.2c1.9-1.7,3.9-3.4,5.8-5.1
	c0.5-0.4,0.9-0.8,1.4-1.2c0-0.1,0.1-0.1,0.1-0.2c0.3-0.3,0.6-0.5,0.9-0.8c0.8-0.9,1.9-1.5,2.9-2.1c1.3-0.9,2.4-2.1,3.8-3
	c0,0,0,0,0,0c0.1-0.1,0.1-0.1,0.2-0.2c0.1,0,0.1-0.1,0.2-0.1c0.2-0.1,0.3-0.2,0.5-0.3c2.7-2.2,5.6-4.2,8.8-5.8
	c1.1-0.5,2.1-1,3.3-1.5c0.1,0.1,0.1,0.2,0.2,0.2C65.7,31.2,56.5,45.5,46.4,58.9z"/>
</svg>
